<svg width="31" height="31" xmlns="http://www.w3.org/2000/svg" xmlns:xlink="http://www.w3.org/1999/xlink" xmlns:svgjs="http://svgjs.com/svgjs" fill="#54524f"><svg xmlns="http://www.w3.org/2000/svg" width="31" height="31" viewBox="3 2.999 30 30"><path paint-order="stroke fill markers" fill-rule="evenodd" d="M23.9 20.801c3.673-5.085 2.445-12.126-2.742-15.727-5.187-3.6-12.37-2.396-16.042 2.69-3.672 5.085-2.444 12.125 2.743 15.725a11.698 11.698 0 0 0 12.502.508l8.484 8.268c.917.945 2.44.983 3.405.085a2.328 2.328 0 0 0 0-3.423l-8.35-8.126zm-9.399.771c-4.099 0-7.422-3.255-7.424-7.273-.001-4.018 3.32-7.276 7.419-7.278 4.093-.001 7.415 3.248 7.423 7.261.007 4.02-3.312 7.283-7.413 7.29h-.005z"/></svg></svg>